<svg width="102" height="208" viewBox="0 0 102 208" fill="none" xmlns="http://www.w3.org/2000/svg">
<path d="M0.939697 0.361279H50.0302C66.788 0.361279 79.0113 4.3043 86.7002 12.1903C94.3891 19.8792 98.2335 31.8068 98.2335 47.9732V56.2535C98.2335 66.8996 96.4592 75.5742 92.9105 82.2774C89.5589 88.9805 84.3344 93.8107 77.237 96.7679V97.3594C93.4033 102.88 101.487 117.272 101.487 140.535V158.279C101.487 174.248 97.2478 186.471 88.7703 194.949C80.49 203.229 68.2666 207.369 52.1003 207.369H0.939697V0.361279ZM46.1858 84.6432C52.6917 84.6432 57.5219 82.9674 60.6763 79.6158C64.0279 76.2643 65.7037 70.6455 65.7037 62.7594V51.2261C65.7037 43.7344 64.3236 38.3128 61.5635 34.9612C59.0006 31.6097 54.8604 29.9339 49.143 29.9339H33.4696V84.6432H46.1858ZM52.1003 177.797C57.8176 177.797 62.0564 176.318 64.8165 173.361C67.5766 170.207 68.9567 164.883 68.9567 157.392V139.352C68.9567 129.889 67.2809 123.383 63.9293 119.835C60.7749 116.089 55.4518 114.216 47.9601 114.216H33.4696V177.797H52.1003Z" fill="#E50914"/>
</svg>
